<svg width="157" height="25" viewBox="0 0 157 25" fill="none" xmlns="http://www.w3.org/2000/svg">
<g filter="url(#filter0_d_1715_26)">
<mask id="path-1-inside-1_1715_26" fill="white">
<path d="M30.0086 15.0929L31.2245 13.2432C31.6322 13.4741 32.0461 13.6817 32.4662 13.8659C32.8862 14.0502 33.3222 14.2061 33.7742 14.3339C34.2237 14.4592 34.6965 14.5562 35.1927 14.625C35.6889 14.6913 36.2183 14.7244 36.7808 14.7244C37.4563 14.7244 38.0323 14.6802 38.5088 14.5918C38.9829 14.5034 39.3698 14.3805 39.6695 14.2233C39.9691 14.0686 40.1877 13.8831 40.3253 13.667C40.4629 13.4508 40.5316 13.2162 40.5316 12.9632C40.5316 12.5555 40.3609 12.2325 40.0195 11.9942C39.678 11.7559 39.1524 11.6368 38.4425 11.6368C38.1305 11.6368 37.8026 11.6577 37.4587 11.6994C37.1124 11.7387 36.7623 11.7829 36.4086 11.8321C36.0574 11.8812 35.7098 11.9254 35.3659 11.9647C35.0245 12.0065 34.7027 12.0273 34.4006 12.0273C33.8945 12.0273 33.4106 11.9623 32.9488 11.8321C32.4846 11.7019 32.0744 11.5078 31.7182 11.2499C31.3596 10.9895 31.0759 10.6653 30.8671 10.2772C30.6558 9.88908 30.5502 9.43588 30.5502 8.91758C30.5502 8.61054 30.592 8.30595 30.6755 8.00381C30.759 7.70168 30.8929 7.41306 31.0771 7.13794C31.2613 6.86037 31.4996 6.60368 31.7919 6.36787C32.0867 6.1296 32.4416 5.9245 32.8567 5.75255C33.2719 5.57815 33.7508 5.44182 34.2937 5.34356C34.839 5.24531 35.4592 5.19618 36.1544 5.19618C36.6579 5.19618 37.164 5.22443 37.6724 5.28093C38.1809 5.33497 38.6759 5.41234 39.1573 5.51305C39.6412 5.61376 40.1055 5.73535 40.5501 5.87782C40.9971 6.01784 41.4122 6.17504 41.7954 6.34945L40.7969 8.19172C40.48 8.05171 40.1386 7.92275 39.7726 7.80485C39.4091 7.68694 39.0283 7.585 38.6304 7.49903C38.2325 7.41305 37.821 7.34551 37.3961 7.29638C36.9711 7.24479 36.5376 7.219 36.0954 7.219C35.4691 7.219 34.9532 7.26444 34.5479 7.35533C34.1426 7.44622 33.8196 7.56289 33.5789 7.70536C33.3382 7.84538 33.1711 8.00381 33.0778 8.18067C32.9845 8.35507 32.9378 8.52825 32.9378 8.70019C32.9378 9.03672 33.0889 9.31183 33.391 9.52553C33.6931 9.73924 34.1537 9.84609 34.7727 9.84609C35.0232 9.84609 35.3094 9.82767 35.6312 9.79082C35.9554 9.75643 36.2969 9.71713 36.6555 9.67291C37.0117 9.6287 37.3764 9.5894 37.7498 9.55501C38.1207 9.51816 38.4818 9.49974 38.8331 9.49974C39.4938 9.49974 40.0797 9.57466 40.5906 9.7245C41.1015 9.87188 41.5301 10.0844 41.8765 10.3619C42.2204 10.637 42.482 10.9699 42.6613 11.3604C42.8382 11.751 42.9266 12.1882 42.9266 12.6721C42.9266 13.3206 42.7767 13.8979 42.4771 14.4039C42.1774 14.9099 41.75 15.3373 41.1949 15.6861C40.6422 16.0325 39.974 16.2965 39.1905 16.4783C38.4093 16.6576 37.5386 16.7473 36.5781 16.7473C35.9444 16.7473 35.3254 16.708 34.7211 16.6294C34.1168 16.5507 33.5384 16.4378 32.9857 16.2904C32.4305 16.143 31.9024 15.9674 31.4013 15.7635C30.9002 15.5596 30.436 15.3361 30.0086 15.0929ZM48.9508 16.5888L43.9841 5.33988H46.4748L49.5256 12.6021L50.2294 14.3597L50.7857 12.6021L51.9058 9.95294L49.8867 5.33988H52.2301L53.0591 7.53587L53.8292 5.33988H56.1762L54.1534 9.95294L55.2956 12.6611L55.9883 14.3597L56.5189 12.6316L59.5844 5.33988H62.0752L57.1121 16.5888H54.8498L53.8513 14.3597L53.037 12.1931L52.2227 14.3597L51.2094 16.5888H48.9508ZM63.818 16.5888V5.33988H73.3941V7.34059H66.0987V9.58817H72.5614V11.4636H66.0987V14.5955H73.5488V16.5888H63.818ZM76.0801 16.5888V5.33988H85.6599V7.34059H78.3608V9.58817H84.8235V11.4636H78.3608V14.5955H85.811V16.5888H76.0801ZM91.7321 16.5888V7.34059H87.5796V5.33988H98.1653V7.34059H94.0128V16.5888H91.7321ZM100.582 16.5888V5.33988H102.867L109.875 9.0097V5.33988H112.155V16.5888H109.875V11.4304L102.867 7.77905V16.5888H100.582ZM114.676 10.933C114.676 10.0831 114.832 9.30569 115.144 8.60071C115.456 7.89573 115.893 7.29024 116.455 6.78422C117.02 6.27821 117.697 5.88642 118.486 5.60885C119.274 5.32883 120.148 5.18881 121.109 5.18881C122.062 5.18881 122.935 5.32883 123.729 5.60885C124.52 5.88642 125.196 6.27821 125.759 6.78422C126.324 7.29024 126.762 7.89573 127.074 8.60071C127.386 9.30569 127.542 10.0831 127.542 10.933C127.542 11.7854 127.386 12.569 127.074 13.2838C126.762 13.9961 126.324 14.609 125.759 15.1224C125.196 15.6358 124.52 16.0349 123.729 16.3199C122.935 16.6048 122.062 16.7473 121.109 16.7473C120.148 16.7473 119.274 16.6048 118.486 16.3199C117.697 16.0349 117.02 15.6358 116.455 15.1224C115.893 14.609 115.456 13.9961 115.144 13.2838C114.832 12.569 114.676 11.7854 114.676 10.933ZM116.956 10.933C116.956 11.5127 117.061 12.0359 117.27 12.5027C117.478 12.9669 117.768 13.3636 118.139 13.6928C118.51 14.0219 118.949 14.2749 119.455 14.4518C119.963 14.6286 120.514 14.7171 121.109 14.7171C121.703 14.7171 122.254 14.6286 122.76 14.4518C123.266 14.2749 123.703 14.0219 124.071 13.6928C124.442 13.3636 124.733 12.9669 124.945 12.5027C125.156 12.0359 125.261 11.5127 125.261 10.933C125.261 10.3533 125.156 9.83258 124.945 9.37078C124.733 8.91144 124.442 8.52211 124.071 8.20278C123.703 7.88345 123.266 7.63904 122.76 7.46955C122.254 7.30252 121.703 7.219 121.109 7.219C120.514 7.219 119.963 7.30252 119.455 7.46955C118.949 7.63904 118.51 7.88345 118.139 8.20278C117.768 8.52211 117.478 8.91144 117.27 9.37078C117.061 9.83258 116.956 10.3533 116.956 10.933ZM133.463 16.5888V7.34059H129.311V5.33988H139.896V7.34059H135.744V16.5888H133.463ZM142.328 16.5888V5.33988H151.908V7.34059H144.613V9.58817H151.075V11.4636H144.613V14.5955H152.059V16.5888H142.328Z"/>
</mask>
<path d="M30.0086 15.0929L31.2245 13.2432C31.6322 13.4741 32.0461 13.6817 32.4662 13.8659C32.8862 14.0502 33.3222 14.2061 33.7742 14.3339C34.2237 14.4592 34.6965 14.5562 35.1927 14.625C35.6889 14.6913 36.2183 14.7244 36.7808 14.7244C37.4563 14.7244 38.0323 14.6802 38.5088 14.5918C38.9829 14.5034 39.3698 14.3805 39.6695 14.2233C39.9691 14.0686 40.1877 13.8831 40.3253 13.667C40.4629 13.4508 40.5316 13.2162 40.5316 12.9632C40.5316 12.5555 40.3609 12.2325 40.0195 11.9942C39.678 11.7559 39.1524 11.6368 38.4425 11.6368C38.1305 11.6368 37.8026 11.6577 37.4587 11.6994C37.1124 11.7387 36.7623 11.7829 36.4086 11.8321C36.0574 11.8812 35.7098 11.9254 35.3659 11.9647C35.0245 12.0065 34.7027 12.0273 34.4006 12.0273C33.8945 12.0273 33.4106 11.9623 32.9488 11.8321C32.4846 11.7019 32.0744 11.5078 31.7182 11.2499C31.3596 10.9895 31.0759 10.6653 30.8671 10.2772C30.6558 9.88908 30.5502 9.43588 30.5502 8.91758C30.5502 8.61054 30.592 8.30595 30.6755 8.00381C30.759 7.70168 30.8929 7.41306 31.0771 7.13794C31.2613 6.86037 31.4996 6.60368 31.7919 6.36787C32.0867 6.1296 32.4416 5.9245 32.8567 5.75255C33.2719 5.57815 33.7508 5.44182 34.2937 5.34356C34.839 5.24531 35.4592 5.19618 36.1544 5.19618C36.6579 5.19618 37.164 5.22443 37.6724 5.28093C38.1809 5.33497 38.6759 5.41234 39.1573 5.51305C39.6412 5.61376 40.1055 5.73535 40.5501 5.87782C40.9971 6.01784 41.4122 6.17504 41.7954 6.34945L40.7969 8.19172C40.48 8.05171 40.1386 7.92275 39.7726 7.80485C39.4091 7.68694 39.0283 7.585 38.6304 7.49903C38.2325 7.41305 37.821 7.34551 37.3961 7.29638C36.9711 7.24479 36.5376 7.219 36.0954 7.219C35.4691 7.219 34.9532 7.26444 34.5479 7.35533C34.1426 7.44622 33.8196 7.56289 33.5789 7.70536C33.3382 7.84538 33.1711 8.00381 33.0778 8.18067C32.9845 8.35507 32.9378 8.52825 32.9378 8.70019C32.9378 9.03672 33.0889 9.31183 33.391 9.52553C33.6931 9.73924 34.1537 9.84609 34.7727 9.84609C35.0232 9.84609 35.3094 9.82767 35.6312 9.79082C35.9554 9.75643 36.2969 9.71713 36.6555 9.67291C37.0117 9.6287 37.3764 9.5894 37.7498 9.55501C38.1207 9.51816 38.4818 9.49974 38.8331 9.49974C39.4938 9.49974 40.0797 9.57466 40.5906 9.7245C41.1015 9.87188 41.5301 10.0844 41.8765 10.3619C42.2204 10.637 42.482 10.9699 42.6613 11.3604C42.8382 11.751 42.9266 12.1882 42.9266 12.6721C42.9266 13.3206 42.7767 13.8979 42.4771 14.4039C42.1774 14.9099 41.75 15.3373 41.1949 15.6861C40.6422 16.0325 39.974 16.2965 39.1905 16.4783C38.4093 16.6576 37.5386 16.7473 36.5781 16.7473C35.9444 16.7473 35.3254 16.708 34.7211 16.6294C34.1168 16.5507 33.5384 16.4378 32.9857 16.2904C32.4305 16.143 31.9024 15.9674 31.4013 15.7635C30.9002 15.5596 30.436 15.3361 30.0086 15.0929ZM48.9508 16.5888L43.9841 5.33988H46.4748L49.5256 12.6021L50.2294 14.3597L50.7857 12.6021L51.9058 9.95294L49.8867 5.33988H52.2301L53.0591 7.53587L53.8292 5.33988H56.1762L54.1534 9.95294L55.2956 12.6611L55.9883 14.3597L56.5189 12.6316L59.5844 5.33988H62.0752L57.1121 16.5888H54.8498L53.8513 14.3597L53.037 12.1931L52.2227 14.3597L51.2094 16.5888H48.9508ZM63.818 16.5888V5.33988H73.3941V7.34059H66.0987V9.58817H72.5614V11.4636H66.0987V14.5955H73.5488V16.5888H63.818ZM76.0801 16.5888V5.33988H85.6599V7.34059H78.3608V9.58817H84.8235V11.4636H78.3608V14.5955H85.811V16.5888H76.0801ZM91.7321 16.5888V7.34059H87.5796V5.33988H98.1653V7.34059H94.0128V16.5888H91.7321ZM100.582 16.5888V5.33988H102.867L109.875 9.0097V5.33988H112.155V16.5888H109.875V11.4304L102.867 7.77905V16.5888H100.582ZM114.676 10.933C114.676 10.0831 114.832 9.30569 115.144 8.60071C115.456 7.89573 115.893 7.29024 116.455 6.78422C117.02 6.27821 117.697 5.88642 118.486 5.60885C119.274 5.32883 120.148 5.18881 121.109 5.18881C122.062 5.18881 122.935 5.32883 123.729 5.60885C124.52 5.88642 125.196 6.27821 125.759 6.78422C126.324 7.29024 126.762 7.89573 127.074 8.60071C127.386 9.30569 127.542 10.0831 127.542 10.933C127.542 11.7854 127.386 12.569 127.074 13.2838C126.762 13.9961 126.324 14.609 125.759 15.1224C125.196 15.6358 124.52 16.0349 123.729 16.3199C122.935 16.6048 122.062 16.7473 121.109 16.7473C120.148 16.7473 119.274 16.6048 118.486 16.3199C117.697 16.0349 117.02 15.6358 116.455 15.1224C115.893 14.609 115.456 13.9961 115.144 13.2838C114.832 12.569 114.676 11.7854 114.676 10.933ZM116.956 10.933C116.956 11.5127 117.061 12.0359 117.27 12.5027C117.478 12.9669 117.768 13.3636 118.139 13.6928C118.51 14.0219 118.949 14.2749 119.455 14.4518C119.963 14.6286 120.514 14.7171 121.109 14.7171C121.703 14.7171 122.254 14.6286 122.76 14.4518C123.266 14.2749 123.703 14.0219 124.071 13.6928C124.442 13.3636 124.733 12.9669 124.945 12.5027C125.156 12.0359 125.261 11.5127 125.261 10.933C125.261 10.3533 125.156 9.83258 124.945 9.37078C124.733 8.91144 124.442 8.52211 124.071 8.20278C123.703 7.88345 123.266 7.63904 122.76 7.46955C122.254 7.30252 121.703 7.219 121.109 7.219C120.514 7.219 119.963 7.30252 119.455 7.46955C118.949 7.63904 118.51 7.88345 118.139 8.20278C117.768 8.52211 117.478 8.91144 117.27 9.37078C117.061 9.83258 116.956 10.3533 116.956 10.933ZM133.463 16.5888V7.34059H129.311V5.33988H139.896V7.34059H135.744V16.5888H133.463ZM142.328 16.5888V5.33988H151.908V7.34059H144.613V9.58817H151.075V11.4636H144.613V14.5955H152.059V16.5888H142.328Z" fill="#261F2B"/>
<path d="M30.0086 15.0929L31.2245 13.2432C31.6322 13.4741 32.0461 13.6817 32.4662 13.8659C32.8862 14.0502 33.3222 14.2061 33.7742 14.3339C34.2237 14.4592 34.6965 14.5562 35.1927 14.625C35.6889 14.6913 36.2183 14.7244 36.7808 14.7244C37.4563 14.7244 38.0323 14.6802 38.5088 14.5918C38.9829 14.5034 39.3698 14.3805 39.6695 14.2233C39.9691 14.0686 40.1877 13.8831 40.3253 13.667C40.4629 13.4508 40.5316 13.2162 40.5316 12.9632C40.5316 12.5555 40.3609 12.2325 40.0195 11.9942C39.678 11.7559 39.1524 11.6368 38.4425 11.6368C38.1305 11.6368 37.8026 11.6577 37.4587 11.6994C37.1124 11.7387 36.7623 11.7829 36.4086 11.8321C36.0574 11.8812 35.7098 11.9254 35.3659 11.9647C35.0245 12.0065 34.7027 12.0273 34.4006 12.0273C33.8945 12.0273 33.4106 11.9623 32.9488 11.8321C32.4846 11.7019 32.0744 11.5078 31.7182 11.2499C31.3596 10.9895 31.0759 10.6653 30.8671 10.2772C30.6558 9.88908 30.5502 9.43588 30.5502 8.91758C30.5502 8.61054 30.592 8.30595 30.6755 8.00381C30.759 7.70168 30.8929 7.41306 31.0771 7.13794C31.2613 6.86037 31.4996 6.60368 31.7919 6.36787C32.0867 6.1296 32.4416 5.9245 32.8567 5.75255C33.2719 5.57815 33.7508 5.44182 34.2937 5.34356C34.839 5.24531 35.4592 5.19618 36.1544 5.19618C36.6579 5.19618 37.164 5.22443 37.6724 5.28093C38.1809 5.33497 38.6759 5.41234 39.1573 5.51305C39.6412 5.61376 40.1055 5.73535 40.5501 5.87782C40.9971 6.01784 41.4122 6.17504 41.7954 6.34945L40.7969 8.19172C40.48 8.05171 40.1386 7.92275 39.7726 7.80485C39.4091 7.68694 39.0283 7.585 38.6304 7.49903C38.2325 7.41305 37.821 7.34551 37.3961 7.29638C36.9711 7.24479 36.5376 7.219 36.0954 7.219C35.4691 7.219 34.9532 7.26444 34.5479 7.35533C34.1426 7.44622 33.8196 7.56289 33.5789 7.70536C33.3382 7.84538 33.1711 8.00381 33.0778 8.18067C32.9845 8.35507 32.9378 8.52825 32.9378 8.70019C32.9378 9.03672 33.0889 9.31183 33.391 9.52553C33.6931 9.73924 34.1537 9.84609 34.7727 9.84609C35.0232 9.84609 35.3094 9.82767 35.6312 9.79082C35.9554 9.75643 36.2969 9.71713 36.6555 9.67291C37.0117 9.6287 37.3764 9.5894 37.7498 9.55501C38.1207 9.51816 38.4818 9.49974 38.8331 9.49974C39.4938 9.49974 40.0797 9.57466 40.5906 9.7245C41.1015 9.87188 41.5301 10.0844 41.8765 10.3619C42.2204 10.637 42.482 10.9699 42.6613 11.3604C42.8382 11.751 42.9266 12.1882 42.9266 12.6721C42.9266 13.3206 42.7767 13.8979 42.4771 14.4039C42.1774 14.9099 41.75 15.3373 41.1949 15.6861C40.6422 16.0325 39.974 16.2965 39.1905 16.4783C38.4093 16.6576 37.5386 16.7473 36.5781 16.7473C35.9444 16.7473 35.3254 16.708 34.7211 16.6294C34.1168 16.5507 33.5384 16.4378 32.9857 16.2904C32.4305 16.143 31.9024 15.9674 31.4013 15.7635C30.9002 15.5596 30.436 15.3361 30.0086 15.0929ZM48.9508 16.5888L43.9841 5.33988H46.4748L49.5256 12.6021L50.2294 14.3597L50.7857 12.6021L51.9058 9.95294L49.8867 5.33988H52.2301L53.0591 7.53587L53.8292 5.33988H56.1762L54.1534 9.95294L55.2956 12.6611L55.9883 14.3597L56.5189 12.6316L59.5844 5.33988H62.0752L57.1121 16.5888H54.8498L53.8513 14.3597L53.037 12.1931L52.2227 14.3597L51.2094 16.5888H48.9508ZM63.818 16.5888V5.33988H73.3941V7.34059H66.0987V9.58817H72.5614V11.4636H66.0987V14.5955H73.5488V16.5888H63.818ZM76.0801 16.5888V5.33988H85.6599V7.34059H78.3608V9.58817H84.8235V11.4636H78.3608V14.5955H85.811V16.5888H76.0801ZM91.7321 16.5888V7.34059H87.5796V5.33988H98.1653V7.34059H94.0128V16.5888H91.7321ZM100.582 16.5888V5.33988H102.867L109.875 9.0097V5.33988H112.155V16.5888H109.875V11.4304L102.867 7.77905V16.5888H100.582ZM114.676 10.933C114.676 10.0831 114.832 9.30569 115.144 8.60071C115.456 7.89573 115.893 7.29024 116.455 6.78422C117.02 6.27821 117.697 5.88642 118.486 5.60885C119.274 5.32883 120.148 5.18881 121.109 5.18881C122.062 5.18881 122.935 5.32883 123.729 5.60885C124.52 5.88642 125.196 6.27821 125.759 6.78422C126.324 7.29024 126.762 7.89573 127.074 8.60071C127.386 9.30569 127.542 10.0831 127.542 10.933C127.542 11.7854 127.386 12.569 127.074 13.2838C126.762 13.9961 126.324 14.609 125.759 15.1224C125.196 15.6358 124.52 16.0349 123.729 16.3199C122.935 16.6048 122.062 16.7473 121.109 16.7473C120.148 16.7473 119.274 16.6048 118.486 16.3199C117.697 16.0349 117.02 15.6358 116.455 15.1224C115.893 14.609 115.456 13.9961 115.144 13.2838C114.832 12.569 114.676 11.7854 114.676 10.933ZM116.956 10.933C116.956 11.5127 117.061 12.0359 117.27 12.5027C117.478 12.9669 117.768 13.3636 118.139 13.6928C118.51 14.0219 118.949 14.2749 119.455 14.4518C119.963 14.6286 120.514 14.7171 121.109 14.7171C121.703 14.7171 122.254 14.6286 122.76 14.4518C123.266 14.2749 123.703 14.0219 124.071 13.6928C124.442 13.3636 124.733 12.9669 124.945 12.5027C125.156 12.0359 125.261 11.5127 125.261 10.933C125.261 10.3533 125.156 9.83258 124.945 9.37078C124.733 8.91144 124.442 8.52211 124.071 8.20278C123.703 7.88345 123.266 7.63904 122.76 7.46955C122.254 7.30252 121.703 7.219 121.109 7.219C120.514 7.219 119.963 7.30252 119.455 7.46955C118.949 7.63904 118.51 7.88345 118.139 8.20278C117.768 8.52211 117.478 8.91144 117.27 9.37078C117.061 9.83258 116.956 10.3533 116.956 10.933ZM133.463 16.5888V7.34059H129.311V5.33988H139.896V7.34059H135.744V16.5888H133.463ZM142.328 16.5888V5.33988H151.908V7.34059H144.613V9.58817H151.075V11.4636H144.613V14.5955H152.059V16.5888H142.328Z" stroke="black" stroke-width="2" mask="url(#path-1-inside-1_1715_26)"/>
</g>
<path d="M17.9781 0.540652C17.9781 0.403994 17.9157 0.274581 17.8089 0.189131C17.7026 0.103635 17.562 0.0722269 17.4292 0.101655L5.75099 2.73716C5.54576 2.78351 5.39988 2.96589 5.39988 3.17611V15.9911C4.82769 15.3431 4.03101 14.9389 3.14983 14.9389C1.41292 14.9389 0 16.5049 0 18.4262C0 20.3431 1.41292 21.9091 3.14983 21.9091C4.70278 21.9091 5.99349 20.6561 6.25016 19.0208H6.29983V3.53583L17.0782 1.10357V12.2206C16.4971 11.5646 15.6837 11.1546 14.7817 11.1546C13.0178 11.1546 11.5824 12.7161 11.5824 14.6375C11.5824 16.5588 13.0178 18.1203 14.7817 18.1203C16.4903 18.1203 17.8825 16.654 17.9682 14.8157H17.9781V0.540652Z" fill="#A45CF3"/>
<defs>
<filter id="filter0_d_1715_26" x="26.0086" y="5.18881" width="130.051" height="19.5584" filterUnits="userSpaceOnUse" color-interpolation-filters="sRGB">
<feFlood flood-opacity="0" result="BackgroundImageFix"/>
<feColorMatrix in="SourceAlpha" type="matrix" values="0 0 0 0 0 0 0 0 0 0 0 0 0 0 0 0 0 0 127 0" result="hardAlpha"/>
<feOffset dy="4"/>
<feGaussianBlur stdDeviation="2"/>
<feComposite in2="hardAlpha" operator="out"/>
<feColorMatrix type="matrix" values="0 0 0 0 0 0 0 0 0 0 0 0 0 0 0 0 0 0 0.25 0"/>
<feBlend mode="normal" in2="BackgroundImageFix" result="effect1_dropShadow_1715_26"/>
<feBlend mode="normal" in="SourceGraphic" in2="effect1_dropShadow_1715_26" result="shape"/>
</filter>
</defs>
</svg>
