<svg width="22" height="20" viewBox="0 0 22 20" fill="none" xmlns="http://www.w3.org/2000/svg">
<path d="M21.3374 8.15826C21.2986 7.93852 21.2111 7.73025 21.0814 7.54869C20.9517 7.36713 20.783 7.21687 20.5877 7.10893L18.6637 6.04083C18.5404 5.80174 18.4055 5.56778 18.2605 5.34137L18.2976 3.13902C18.3019 2.91617 18.2563 2.69518 18.1642 2.49224C18.072 2.28931 17.9356 2.10958 17.7649 1.96623C16.8184 1.16906 15.738 0.54622 14.5738 0.126705C14.3641 0.0504347 14.14 0.0220359 13.9178 0.0435878C13.6957 0.0651397 13.4812 0.136097 13.2901 0.251263L11.4031 1.38354C11.1342 1.37077 10.8641 1.37049 10.5958 1.3829L8.70706 0.249661C8.51625 0.134425 8.30206 0.0633751 8.0802 0.0417263C7.85834 0.0200775 7.63445 0.0483788 7.42496 0.124553C6.26134 0.545644 5.18171 1.16995 4.23631 1.96843C4.06542 2.11191 3.92878 2.2918 3.83641 2.49492C3.74403 2.69805 3.69825 2.91926 3.70243 3.14236L3.73941 5.3427C3.59398 5.5691 3.45876 5.80289 3.33521 6.04156L1.40949 7.11053C1.21392 7.21868 1.04505 7.36924 0.915266 7.55117C0.785478 7.73309 0.698065 7.94177 0.659441 8.16188C0.442959 9.37906 0.444028 10.625 0.662601 11.8418C0.701418 12.0615 0.788886 12.2698 0.918601 12.4514C1.04832 12.6329 1.21699 12.7832 1.41228 12.8911L3.33635 13.9592C3.45963 14.1983 3.59449 14.4323 3.73946 14.6587L3.70243 16.861C3.69808 17.0839 3.74367 17.3049 3.83585 17.5078C3.92802 17.7107 4.06445 17.8905 4.23513 18.0338C5.18159 18.831 6.26203 19.4538 7.42619 19.8733C7.63591 19.9496 7.86004 19.978 8.08216 19.9565C8.30428 19.9349 8.51876 19.864 8.7099 19.7488L10.5969 18.6165C10.8658 18.6293 11.1359 18.6295 11.4042 18.6172L13.2929 19.7504C13.4838 19.8656 13.698 19.9367 13.9198 19.9583C14.1417 19.9799 14.3655 19.9517 14.575 19.8755C15.7387 19.4544 16.8183 18.8301 17.7637 18.0316C17.9346 17.8881 18.0712 17.7083 18.1636 17.5051C18.256 17.302 18.3018 17.0808 18.2976 16.8577L18.2606 14.6574C18.406 14.4309 18.5412 14.1972 18.6648 13.9585L20.5905 12.8895C20.7861 12.7814 20.9549 12.6308 21.0847 12.4489C21.2145 12.2669 21.3019 12.0583 21.3406 11.8382C21.557 10.621 21.556 9.37507 21.3374 8.15826ZM15.1246 10C15.1246 10.8159 14.8827 11.6134 14.4294 12.2918C13.9762 12.9701 13.332 13.4988 12.5782 13.811C11.8245 14.1232 10.9951 14.2049 10.1949 14.0458C9.39472 13.8866 8.65971 13.4937 8.08282 12.9168C7.50593 12.3399 7.11306 11.6049 6.9539 10.8048C6.79473 10.0046 6.87642 9.1752 7.18863 8.42146C7.50084 7.66771 8.02956 7.02348 8.70791 6.57021C9.38626 6.11695 10.1838 5.87503 10.9996 5.87503C12.0933 5.87626 13.1418 6.31125 13.9151 7.08457C14.6884 7.85789 15.1234 8.90639 15.1246 10Z" fill="#726B76"/>
</svg>
